<?xml version="1.0" standalone="no"?>
<!DOCTYPE svg PUBLIC "-//W3C//DTD SVG 20010904//EN"
 "http://www.w3.org/TR/2001/REC-SVG-20010904/DTD/svg10.dtd">
<svg version="1.0" xmlns="http://www.w3.org/2000/svg"
 width="500.000000pt" height="500.000000pt" viewBox="0 0 500.000000 500.000000"
 preserveAspectRatio="xMidYMid meet">

<g transform="translate(0.000000,500.000000) scale(0.100000,-0.100000)"
fill="#000000" stroke="none">
<path d="M2757 3869 c-66 -44 -104 -91 -151 -188 l-41 -86 -3 -757 c-1 -417 0
-758 3 -758 4 0 65 48 136 106 130 106 130 106 125 143 -3 20 -5 381 -6 804 0
422 -4 767 -8 767 -5 0 -29 -14 -55 -31z"/>
<path d="M1567 3863 c-21 -20 0 -103 35 -140 31 -33 38 -29 38 20 0 30 -8 56
-27 85 -28 42 -34 47 -46 35z"/>
<path d="M3490 3822 c-30 -30 -40 -47 -40 -70 0 -41 22 -42 61 -3 23 23 29 39
29 70 0 23 -2 41 -5 41 -2 0 -22 -17 -45 -38z"/>
<path d="M3754 3689 c-7 -12 15 -31 28 -23 4 3 8 12 8 20 0 17 -26 19 -36 3z"/>
<path d="M1377 3664 c-3 -3 -1 -15 6 -25 13 -22 47 -26 47 -6 0 26 -37 47 -53
31z"/>
<path d="M3521 3607 c-25 -27 -35 -47 -38 -81 -6 -53 5 -59 42 -22 24 24 39
76 33 115 -3 21 -5 20 -37 -12z"/>
<path d="M2370 3479 c-66 -53 -125 -120 -153 -174 l-32 -60 -3 -732 c-1 -403
0 -733 4 -733 15 0 222 171 225 187 7 34 -1 1533 -9 1533 -4 -1 -18 -10 -32
-21z"/>
<path d="M3182 3155 c-102 -77 -171 -181 -191 -290 -12 -66 -15 -435 -3 -435
4 0 32 23 63 50 55 48 56 50 62 114 8 82 24 113 87 168 l50 44 -2 198 -3 198
-63 -47z"/>
<path d="M1984 3102 c-62 -45 -121 -119 -144 -178 -19 -53 -20 -75 -20 -739 0
-377 3 -685 6 -685 3 0 24 15 47 34 23 19 68 54 101 78 l58 43 -1 735 c-1 404
-3 736 -5 737 -1 2 -21 -10 -42 -25z"/>
<path d="M1614 2768 c-103 -89 -146 -147 -186 -254 l-23 -59 2 -595 c1 -327 3
-610 3 -627 0 -25 4 -33 18 -32 9 0 68 39 130 87 l114 87 -1 714 c-1 393 -3
716 -5 718 -1 2 -25 -16 -52 -39z"/>
<path d="M3480 2419 c-73 -49 -98 -60 -162 -70 -33 -5 -78 -19 -100 -30 -63
-32 -247 -198 -753 -678 -159 -151 -317 -300 -349 -331 -33 -30 -71 -66 -85
-80 l-26 -25 47 -3 c47 -3 48 -2 275 169 429 325 520 394 668 509 81 63 173
133 204 155 l56 41 3 66 3 67 58 36 c54 32 161 133 197 184 19 27 18 27 -36
-10z"/>
<path d="M3589 2122 c-19 -15 -46 -38 -60 -51 -13 -13 -42 -34 -64 -48 -22
-14 -53 -38 -70 -53 -26 -23 -93 -73 -324 -240 -27 -19 -110 -82 -186 -140
-75 -58 -158 -121 -184 -140 -51 -37 -259 -196 -301 -230 l-25 -20 45 0 c40 1
53 7 117 58 39 31 111 87 160 124 48 37 171 132 273 210 102 79 207 159 233
178 25 19 47 40 47 45 0 6 26 30 58 55 91 71 332 279 322 279 -3 0 -21 -12
-41 -27z"/>
<path d="M3800 2092 c-59 -31 -105 -149 -57 -146 9 1 17 -2 17 -6 0 -4 12 -5
28 -2 49 8 106 74 117 135 l7 37 -39 0 c-21 0 -54 -8 -73 -18z m15 -74 c-48
-54 -63 -69 -45 -43 18 25 73 85 78 85 2 0 -13 -19 -33 -42z"/>
<path d="M3684 1885 c-40 -17 -64 -51 -64 -92 0 -26 4 -33 20 -33 26 0 69 48
76 87 9 47 3 53 -32 38z"/>
<path d="M3153 1703 c-387 -295 -634 -486 -639 -494 -3 -5 20 -9 50 -9 30 0
58 4 61 10 3 5 58 49 122 97 64 49 148 113 188 143 39 30 126 97 193 148 120
91 122 93 122 132 0 22 -2 40 -5 40 -2 0 -44 -30 -92 -67z"/>
<path d="M3432 1663 c4 -21 33 -25 33 -3 0 8 -8 16 -18 18 -14 3 -18 -1 -15
-15z"/>
<path d="M3875 1660 c-8 -13 4 -32 16 -25 12 8 12 35 0 35 -6 0 -13 -4 -16
-10z"/>
<path d="M3055 1514 c-104 -80 -224 -171 -265 -201 -41 -31 -90 -69 -108 -85
l-33 -28 301 0 300 0 0 230 c0 127 -1 230 -2 229 -2 0 -88 -65 -193 -145z"/>
<path d="M1137 1408 c9 -52 31 -87 66 -108 48 -30 67 -26 67 13 0 61 -62 127
-119 127 -18 0 -20 -5 -14 -32z"/>
<path d="M1280 1064 c-228 -7 -437 -14 -465 -16 -50 -3 127 -11 680 -28 589
-20 2146 -8 2615 19 122 7 119 7 -135 14 -143 5 -379 12 -525 17 -369 13
-1671 10 -2170 -6z"/>
</g>
</svg>
